<svg xmlns="http://www.w3.org/2000/svg" version="1.1" xmlns:xlink="http://www.w3.org/1999/xlink" xmlns:svgjs="http://svgjs.dev/svgjs" width="1000" height="1000" viewBox="0 0 1000 1000"><rect width="1000" height="1000" fill="#398378"></rect><g transform="matrix(0.7,0,0,0.7,149.57575757575756,314.3703597122302)"><svg viewBox="0 0 396 210" data-background-color="#398378" preserveAspectRatio="xMidYMid meet" height="530" width="1000" xmlns="http://www.w3.org/2000/svg" xmlns:xlink="http://www.w3.org/1999/xlink"><g id="tight-bounds" transform="matrix(1,0,0,1,0.2400000000000091,0.07338129496403667)"><svg viewBox="0 0 395.52 209.85323741007193" height="209.85323741007193" width="395.52"><g><svg viewBox="0 0 395.52 209.85323741007193" height="209.85323741007193" width="395.52"><g><svg viewBox="0 0 395.52 209.85323741007193" height="209.85323741007193" width="395.52"><g id="textblocktransform"><svg viewBox="0 0 395.52 209.85323741007193" height="209.85323741007193" width="395.52" id="textblock"><g><svg viewBox="0 0 395.52 209.85323741007193" height="209.85323741007193" width="395.52"><g><svg viewBox="0 0 395.52 209.85323741007193" height="209.85323741007193" width="395.52"><g transform="matrix(1,0,0,1,0,0)"><svg width="395.52" viewBox="2.81 -35.35 67.87 36.01" height="209.85323741007193" data-palette-color="#ffffff"><path d="M2.81-17.5L2.81-17.5Q2.81-19.97 3.47-22.24 4.13-24.51 5.32-26.5 6.52-28.49 8.19-30.11 9.86-31.74 11.87-32.91 13.87-34.08 16.15-34.72 18.43-35.35 20.85-35.35L20.85-35.35Q22.14-35.35 23.49-35.19 24.83-35.03 26.11-34.79 27.39-34.55 28.54-34.25 29.69-33.96 30.55-33.72 31.42-33.47 31.97-33.31 32.52-33.15 32.59-33.15L32.59-33.15 32.89-33.15Q33.08-33.15 33.19-33.19 33.3-33.23 33.39-33.28 33.47-33.33 33.57-33.36 33.67-33.4 33.86-33.4L33.86-33.4 34.84-33.4Q34.89-33.4 35-33.36 35.11-33.33 35.11-33.13L35.11-33.13 35.11-25Q35.11-24.73 34.88-24.63 34.64-24.54 34.47-24.54L34.47-24.54Q34.25-24.56 34.08-24.78 33.91-25 33.76-25.27 33.62-25.54 33.52-25.78 33.42-26.03 33.4-26.15L33.4-26.15Q32.79-28.05 31.68-29.36 30.57-30.66 29.06-31.49 27.56-32.32 25.77-32.69 23.97-33.06 22-33.06L22-33.06Q18.6-33.06 16.33-31.81 14.06-30.57 12.68-28.47 11.3-26.37 10.73-23.62 10.16-20.87 10.16-17.85L10.16-17.85Q10.16-15.77 10.57-13.77 10.99-11.77 11.76-9.97 12.52-8.18 13.62-6.68 14.72-5.18 16.08-4.09 17.43-3 19.01-2.39 20.58-1.78 22.34-1.78L22.34-1.78Q24.32-1.78 25.82-2.21 27.32-2.64 28.25-3.88L28.25-3.88 28.25-9.28Q28.25-10.33 27.99-11.15 27.73-11.96 27.05-12.52 26.37-13.09 25.2-13.38 24.02-13.67 22.19-13.67L22.19-13.67Q22.05-13.67 21.98-13.95 21.92-14.23 21.92-14.43L21.92-14.43Q21.92-14.55 21.98-14.84 22.05-15.14 22.19-15.14L22.19-15.14 39.18-15.14Q39.38-15.14 39.42-14.86 39.45-14.58 39.45-14.43L39.45-14.43Q39.45-14.31 39.4-14.04 39.36-13.77 39.18-13.67L39.18-13.67Q38.53-13.4 37.83-13.21 37.13-13.01 36.55-12.7 35.96-12.38 35.58-11.83 35.21-11.28 35.21-10.33L35.21-10.33 35.21-3.2Q35.21-3 35.05-2.88 34.89-2.76 34.55-2.61L34.55-2.61Q33.18-1.95 31.45-1.37 29.71-0.78 27.88-0.33 26.05 0.12 24.24 0.39 22.44 0.66 20.95 0.66L20.95 0.66Q17.16 0.66 13.87-0.6 10.57-1.86 8.11-4.21 5.64-6.57 4.22-9.94 2.81-13.31 2.81-17.5ZM59.91 0L43.11 0Q42.92 0 42.92-0.24L42.92-0.24 42.92-1.27Q42.92-1.29 42.94-1.38 42.97-1.46 43.11-1.46L43.11-1.46Q43.94-1.46 44.66-1.71 45.38-1.95 45.92-2.37 46.46-2.78 46.77-3.37 47.09-3.96 47.09-4.64L47.09-4.64 47.09-29.44Q47.09-30.66 46.85-31.36 46.6-32.06 46.13-32.41 45.65-32.76 44.93-32.85 44.21-32.93 43.26-32.93L43.26-32.93 42.16-32.93Q41.89-32.93 41.77-33.24 41.65-33.54 41.65-33.76L41.65-33.76Q41.65-33.89 41.7-34.13 41.75-34.38 41.97-34.42L41.97-34.42Q41.99-34.42 42.12-34.42 42.26-34.42 42.6-34.44 42.94-34.45 43.52-34.46 44.09-34.47 45.02-34.5L45.02-34.5Q46.36-34.52 47.89-34.57 49.41-34.62 50.97-34.67 52.54-34.72 54.06-34.75 55.59-34.79 56.93-34.79L56.93-34.79 60.37-34.79Q62.33-34.79 64.18-34.13 66.04-33.47 67.48-32.19 68.92-30.91 69.8-29 70.68-27.1 70.68-24.61L70.68-24.61Q70.68-23.05 70.21-21.62 69.75-20.19 68.96-18.99 68.16-17.8 67.12-16.83 66.09-15.87 64.95-15.21 63.82-14.55 62.64-14.21L62.64-14.21Q61.62-13.94 60.72-13.94L60.72-13.94Q60.57-13.94 60.45-13.94L60.45-13.94 54.61-14.23Q54.59-14.23 54.42-14.23 54.25-14.23 54.17-14.18L54.17-14.18Q54.1-14.14 54.07-14.09 54.05-14.04 54.05-13.89L54.05-13.89 54.05-4.71Q54.05-3.76 54.58-3.14 55.1-2.51 55.94-2.15 56.78-1.78 57.83-1.62 58.88-1.46 59.91-1.46L59.91-1.46Q60.06-1.46 60.08-1.39 60.1-1.32 60.1-1.27L60.1-1.27 60.1-0.2Q60.1-0.15 60.07-0.07 60.03 0 59.91 0L59.91 0ZM54.05-17.72L54.1-16.99Q54.12-16.8 54.21-16.64 54.29-16.48 54.56-16.46L54.56-16.46Q54.66-16.46 54.92-16.43 55.17-16.41 55.52-16.38 55.86-16.36 56.26-16.33 56.66-16.31 57.05-16.31L57.05-16.31Q58.69-16.31 59.92-16.97 61.15-17.63 61.97-18.81 62.79-20 63.19-21.62 63.6-23.24 63.6-25.2L63.6-25.2Q63.6-29.22 61.98-31.1 60.37-32.98 57.25-32.98L57.25-32.98Q56.91-32.98 56.61-32.97 56.32-32.96 56.03-32.95 55.73-32.93 55.41-32.92 55.08-32.91 54.66-32.89L54.66-32.89Q54.51-32.89 54.28-32.82 54.05-32.76 54.05-32.5L54.05-32.5 54.05-17.72Z" opacity="1" transform="matrix(1,0,0,1,0,0)" fill="#ffffff" class="wordmark-text-0" data-fill-palette-color="primary" id="text-0"></path></svg></g></svg></g></svg></g></svg></g></svg></g><g></g></svg></g><defs></defs></svg><rect width="395.52" height="209.85323741007193" fill="none" stroke="none" visibility="hidden"></rect></g></svg></g></svg>